<?xml version="1.0" encoding="UTF-8"?>
<svg xmlns="http://www.w3.org/2000/svg" xmlns:xlink="http://www.w3.org/1999/xlink" width="562.5pt" height="449.999984pt" viewBox="0 0 562.5 449.999984" version="1.2">
<defs>
<clipPath id="clip1">
  <path d="M 56.25 0.199219 L 506.25 0.199219 L 506.25 449.800781 L 56.25 449.800781 Z M 56.25 0.199219 "/>
</clipPath>
</defs>
<g id="surface1">
<g clip-path="url(#clip1)" clip-rule="nonzero">
<path style=" stroke:none;fill-rule:nonzero;fill:rgb(65.489197%,64.709473%,65.098572%);fill-opacity:1;" d="M 506.238281 225.191406 C 506.238281 349.453125 405.503906 450.1875 281.242188 450.1875 C 156.980469 450.1875 56.246094 349.453125 56.246094 225.191406 C 56.246094 100.929688 156.980469 0.195312 281.242188 0.195312 C 405.503906 0.195312 506.238281 100.929688 506.238281 225.191406 "/>
</g>
<path style=" stroke:none;fill-rule:nonzero;fill:rgb(91.369629%,91.369629%,91.369629%);fill-opacity:1;" d="M 289.867188 396.328125 L 293.535156 408.714844 L 297.070312 396.328125 Z M 289.867188 396.328125 "/>
<path style=" stroke:none;fill-rule:nonzero;fill:rgb(13.729858%,12.159729%,12.548828%);fill-opacity:1;" d="M 294.136719 201.949219 L 267.773438 201.949219 C 267.773438 201.949219 267.773438 290.34375 267.773438 327.90625 C 267.773438 355.480469 281.972656 384.464844 289.527344 397.933594 C 290.777344 397.6875 292.101562 397.546875 293.476562 397.546875 C 294.851562 397.546875 296.175781 397.6875 297.425781 397.933594 C 304.980469 384.464844 319.175781 355.480469 319.175781 327.90625 C 319.175781 290.34375 319.175781 201.949219 319.175781 201.949219 L 294.136719 201.949219 "/>
<path style=" stroke:none;fill-rule:nonzero;fill:rgb(95.689392%,95.689392%,95.689392%);fill-opacity:1;" d="M 318.976562 189.945312 L 267.773438 189.945312 L 267.773438 201.949219 L 318.976562 201.949219 L 318.976562 189.945312 "/>
<path style=" stroke:none;fill-rule:nonzero;fill:rgb(13.729858%,12.159729%,12.548828%);fill-opacity:1;" d="M 303.480469 43.640625 L 283.183594 43.640625 C 265.605469 66.871094 267.773438 190.574219 267.773438 190.574219 L 274.230469 190.574219 L 274.195312 190.574219 L 318.890625 190.574219 C 318.890625 190.574219 321.0625 66.871094 303.480469 43.640625 "/>
<path style=" stroke:none;fill-rule:nonzero;fill:rgb(13.729858%,12.159729%,12.548828%);fill-opacity:1;" d="M 245.761719 196.078125 C 245.398438 113.027344 251.878906 63.027344 264.5 51.484375 C 267.042969 49.15625 269.339844 48.777344 270.667969 48.804688 L 295.15625 48.804688 L 295.15625 59.484375 L 271.558594 59.484375 C 269.167969 61.75 255.933594 79.578125 256.441406 196.03125 L 245.761719 196.078125 "/>
<path style=" stroke:none;fill-rule:nonzero;fill:rgb(13.729858%,12.159729%,12.548828%);fill-opacity:1;" d="M 261.777344 196.054688 C 261.777344 201.953125 257 206.730469 251.101562 206.730469 C 245.207031 206.730469 240.425781 201.953125 240.425781 196.054688 C 240.425781 190.160156 245.207031 185.378906 251.101562 185.378906 C 257 185.378906 261.777344 190.160156 261.777344 196.054688 "/>
</g>
</svg>
