<?xml version="1.0" encoding="UTF-8"?>
<svg xmlns="http://www.w3.org/2000/svg" xmlns:xlink="http://www.w3.org/1999/xlink" width="104.88pt" height="104.999996pt" viewBox="0 0 104.88 104.999996" version="1.2">
<defs>
<clipPath id="clip1">
  <path d="M 59 25 L 104 25 L 104 104.914062 L 59 104.914062 Z M 59 25 "/>
</clipPath>
<clipPath id="clip2">
  <path d="M 1 25 L 46 25 L 46 104.914062 L 1 104.914062 Z M 1 25 "/>
</clipPath>
<clipPath id="clip3">
  <path d="M 28 19.511719 L 75 19.511719 L 75 60 L 28 60 Z M 28 19.511719 "/>
</clipPath>
</defs>
<g id="surface1">
<g clip-path="url(#clip1)" clip-rule="nonzero">
<path style=" stroke:none;fill-rule:nonzero;fill:rgb(89.7995%,58.428955%,53.729248%);fill-opacity:1;" d="M 97.8125 25.535156 C 94.679688 25.898438 93.207031 28.371094 93.265625 31.574219 C 93.453125 40.1875 92.28125 49.992188 87.558594 57.078125 C 85.710938 59.84375 83.488281 61.683594 80.8125 63.890625 L 84.453125 56.90625 C 85.601562 54.710938 84.746094 52 82.550781 50.859375 C 80.355469 49.710938 77.648438 50.5625 76.5 52.757812 L 65.476562 73.890625 C 55.226562 88.074219 61.625 104.847656 61.625 104.847656 L 77.449219 104.921875 C 77.53125 96.820312 82.515625 89.914062 82.515625 89.914062 C 104.800781 63.738281 103.160156 38.339844 103.019531 31.839844 C 102.9375 28.042969 100.9375 25.171875 97.8125 25.535156 "/>
</g>
<g clip-path="url(#clip2)" clip-rule="nonzero">
<path style=" stroke:none;fill-rule:nonzero;fill:rgb(89.7995%,58.428955%,53.729248%);fill-opacity:1;" d="M 7.066406 25.535156 C 10.203125 25.898438 11.675781 28.371094 11.613281 31.574219 C 11.425781 40.1875 12.601562 49.992188 17.320312 57.078125 C 19.167969 59.84375 21.390625 61.683594 24.066406 63.890625 L 20.425781 56.90625 C 19.28125 54.710938 20.128906 52 22.328125 50.859375 C 24.523438 49.710938 27.234375 50.5625 28.378906 52.757812 L 39.40625 73.890625 C 49.65625 88.074219 43.261719 104.847656 43.261719 104.847656 L 27.429688 104.921875 C 27.347656 96.820312 22.363281 89.914062 22.363281 89.914062 C 0.078125 63.738281 1.71875 38.339844 1.859375 31.839844 C 1.941406 28.042969 3.945312 25.171875 7.066406 25.535156 "/>
</g>
<g clip-path="url(#clip3)" clip-rule="nonzero">
<path style=" stroke:none;fill-rule:nonzero;fill:rgb(93.328857%,19.60907%,14.118958%);fill-opacity:1;" d="M 74.027344 32.054688 C 74.027344 25.121094 68.410156 19.503906 61.476562 19.503906 C 57.320312 19.503906 53.636719 21.519531 51.355469 24.628906 C 49.066406 21.519531 45.382812 19.503906 41.230469 19.503906 C 34.296875 19.503906 28.675781 25.121094 28.675781 32.054688 C 28.675781 35.410156 29.992188 38.453125 32.136719 40.703125 L 50.769531 59.601562 L 71.394531 39.746094 C 73.042969 37.621094 74.027344 34.953125 74.027344 32.054688 "/>
</g>
</g>
</svg>
