<?xml version="1.0" encoding="UTF-8"?>
<svg xmlns="http://www.w3.org/2000/svg" xmlns:xlink="http://www.w3.org/1999/xlink" width="104.88pt" height="104.999996pt" viewBox="0 0 104.88 104.999996" version="1.2">
<defs>
<clipPath id="clip1">
  <path d="M 18 0.0585938 L 87 0.0585938 L 87 104.9375 L 18 104.9375 Z M 18 0.0585938 "/>
</clipPath>
</defs>
<g id="surface1">
<g clip-path="url(#clip1)" clip-rule="nonzero">
<path style=" stroke:none;fill-rule:nonzero;fill:rgb(89.7995%,58.428955%,53.729248%);fill-opacity:1;" d="M 82.195312 15.003906 C 79.199219 14.503906 76.367188 16.53125 75.871094 19.527344 L 72.222656 41.4375 C 71.488281 41.210938 70.753906 41.007812 70.019531 40.828125 L 71.882812 11.1875 C 72.09375 7.839844 69.554688 4.953125 66.210938 4.742188 C 62.863281 4.527344 59.980469 7.070312 59.769531 10.425781 L 57.945312 39.441406 C 57.753906 39.441406 57.5625 39.441406 57.375 39.445312 L 54.964844 6.082031 C 54.722656 2.734375 51.816406 0.21875 48.472656 0.460938 C 45.132812 0.703125 42.617188 3.613281 42.859375 6.960938 L 45.289062 40.621094 C 44.84375 40.703125 44.492188 40.777344 44.253906 40.832031 L 38.589844 19.585938 C 37.695312 16.238281 34.261719 14.25 30.917969 15.144531 C 27.574219 16.035156 25.589844 19.476562 26.484375 22.824219 L 34.15625 51.585938 C 34.054688 51.847656 33.953125 52.113281 33.859375 52.378906 L 29.730469 47.351562 C 27.382812 44.484375 23.273438 43.980469 20.554688 46.21875 C 17.835938 48.457031 17.53125 52.589844 19.882812 55.453125 L 31.683594 69.847656 C 32.570312 71.554688 34.890625 81.03125 42.03125 89.054688 C 46.542969 94.125 45.277344 104.804688 45.277344 104.804688 L 72.527344 104.804688 C 72.527344 99.757812 73.136719 92.726562 75.273438 89.820312 C 83.457031 78.695312 82.671875 57.101562 82.066406 49.21875 L 86.710938 21.339844 C 87.210938 18.339844 85.1875 15.507812 82.195312 15.003906 "/>
</g>
<path style=" stroke:none;fill-rule:nonzero;fill:rgb(93.328857%,19.60907%,14.118958%);fill-opacity:1;" d="M 75.785156 57.863281 C 75.785156 52.066406 71.09375 47.367188 65.3125 47.367188 C 61.84375 47.367188 58.773438 49.054688 56.867188 51.65625 C 54.964844 49.054688 51.894531 47.367188 48.425781 47.367188 C 42.640625 47.367188 37.953125 52.066406 37.953125 57.863281 C 37.953125 60.664062 39.054688 63.207031 40.839844 65.089844 L 56.382812 80.882812 L 73.585938 64.289062 C 74.960938 62.511719 75.785156 60.28125 75.785156 57.863281 "/>
</g>
</svg>
