<?xml version="1.0" encoding="UTF-8"?>
<svg xmlns="http://www.w3.org/2000/svg" xmlns:xlink="http://www.w3.org/1999/xlink" width="104.88pt" height="104.999996pt" viewBox="0 0 104.88 104.999996" version="1.2">
<defs>
<clipPath id="clip1">
  <path d="M 9.703125 76 L 41 76 L 41 102 L 9.703125 102 Z M 9.703125 76 "/>
</clipPath>
<clipPath id="clip2">
  <path d="M 31 14 L 36 14 L 36 104.9375 L 31 104.9375 Z M 31 14 "/>
</clipPath>
<clipPath id="clip3">
  <path d="M 31 13 L 94.320312 13 L 94.320312 40 L 31 40 Z M 31 13 "/>
</clipPath>
</defs>
<g id="surface1">
<g clip-path="url(#clip1)" clip-rule="nonzero">
<path style=" stroke:none;fill-rule:nonzero;fill:rgb(97.648621%,67.83905%,47.44873%);fill-opacity:1;" d="M 14.050781 101.761719 L 26.171875 96.972656 C 26.171875 96.972656 32.382812 97.714844 36.507812 96.199219 L 40.082031 95.007812 L 32.105469 76.285156 L 22.453125 78.441406 L 19.175781 84.609375 L 9.714844 88.035156 L 14.050781 101.761719 "/>
</g>
<g clip-path="url(#clip2)" clip-rule="nonzero">
<path style=" stroke:none;fill-rule:nonzero;fill:rgb(97.648621%,65.489197%,23.139954%);fill-opacity:1;" d="M 35.460938 104.941406 L 31.820312 104.941406 L 31.820312 14.59375 L 35.460938 14.59375 L 35.460938 104.941406 "/>
</g>
<g clip-path="url(#clip3)" clip-rule="nonzero">
<path style=" stroke:none;fill-rule:nonzero;fill:rgb(92.939758%,10.5896%,29.40979%);fill-opacity:1;" d="M 31.367188 18.046875 L 31.367188 25.882812 C 52.824219 7.125 72.464844 54.035156 93.957031 34.027344 C 94.074219 32.351562 94.1875 30.679688 94.304688 29.003906 C 72.695312 48.222656 52.945312 0.0625 31.367188 18.046875 "/>
</g>
<path style=" stroke:none;fill-rule:nonzero;fill:rgb(97.24884%,62.748718%,16.859436%);fill-opacity:1;" d="M 31.367188 25.882812 L 31.367188 33.71875 C 52.703125 14.1875 72.238281 59.84375 93.609375 39.046875 C 93.726562 37.371094 93.84375 35.699219 93.957031 34.027344 C 72.464844 54.035156 52.824219 7.125 31.367188 25.882812 "/>
<path style=" stroke:none;fill-rule:nonzero;fill:rgb(97.24884%,84.309387%,23.529053%);fill-opacity:1;" d="M 31.367188 33.71875 L 31.367188 41.554688 C 52.582031 21.25 72.011719 65.652344 93.261719 44.066406 C 93.378906 42.394531 93.496094 40.71875 93.609375 39.046875 C 72.238281 59.84375 52.703125 14.1875 31.367188 33.71875 "/>
<path style=" stroke:none;fill-rule:nonzero;fill:rgb(40.388489%,75.289917%,61.569214%);fill-opacity:1;" d="M 31.367188 41.554688 L 31.367188 49.386719 C 52.464844 28.3125 71.78125 71.460938 92.917969 49.089844 C 93.03125 47.417969 93.148438 45.742188 93.261719 44.066406 C 72.011719 65.652344 52.582031 21.25 31.367188 41.554688 "/>
<path style=" stroke:none;fill-rule:nonzero;fill:rgb(29.019165%,59.999084%,81.959534%);fill-opacity:1;" d="M 31.367188 49.386719 L 31.367188 57.21875 C 52.34375 35.375 71.558594 77.269531 92.570312 54.113281 C 92.683594 52.4375 92.800781 50.765625 92.917969 49.089844 C 71.78125 71.460938 52.464844 28.3125 31.367188 49.386719 "/>
<path style=" stroke:none;fill-rule:nonzero;fill:rgb(37.649536%,30.589294%,67.059326%);fill-opacity:1;" d="M 31.367188 57.21875 L 31.539062 65.050781 C 52.394531 42.433594 71.503906 83.078125 92.394531 59.132812 C 92.511719 57.460938 92.507812 54.972656 92.625 53.296875 C 71.613281 76.453125 52.339844 35.375 31.367188 57.21875 "/>
<path style=" stroke:none;fill-rule:nonzero;fill:rgb(89.019775%,61.959839%,43.139648%);fill-opacity:1;" d="M 32.042969 76.230469 L 32.234375 76.679688 C 31.898438 77.988281 30.851562 79.488281 29.042969 79.621094 L 26.308594 80.144531 C 26.308594 80.144531 29.402344 85.785156 24.542969 92.148438 C 24.542969 92.148438 26.382812 89.417969 26.8125 86.21875 C 27.273438 82.789062 25.617188 79.824219 25.617188 79.824219 L 28.792969 79.40625 C 30.710938 79.265625 31.773438 77.582031 32.039062 76.230469 L 32.042969 76.230469 "/>
<path style=" stroke:none;fill-rule:nonzero;fill:rgb(89.019775%,61.959839%,43.139648%);fill-opacity:1;" d="M 31.308594 76.277344 L 38.460938 73.976562 C 39.160156 73.757812 40.15625 74.921875 40.5 76.003906 C 40.863281 77.136719 40.730469 78.425781 40.140625 78.773438 L 40.59375 78.628906 C 41.289062 78.410156 42.285156 79.574219 42.628906 80.65625 C 43.015625 81.871094 42.832031 83.265625 42.132812 83.488281 L 41.652344 83.640625 C 42.34375 83.527344 43.277344 84.644531 43.605469 85.6875 C 43.992188 86.902344 43.808594 88.296875 43.113281 88.519531 L 40.980469 89.199219 L 41.238281 89.117188 C 41.9375 88.894531 42.933594 90.0625 43.277344 91.144531 C 43.660156 92.355469 43.480469 93.753906 42.78125 93.972656 L 37.132812 95.769531 C 36.433594 95.992188 35.21875 95.832031 34.851562 94.671875 L 34.378906 93.195312 C 33.960938 91.875 34.890625 91.132812 35.59375 90.910156 L 35.78125 90.851562 C 35.070312 90.996094 34.011719 90.78125 33.671875 89.710938 L 33.203125 88.230469 C 32.785156 86.914062 33.714844 86.171875 34.414062 85.949219 L 38.375 84.679688 L 34.527344 85.902344 C 33.832031 86.125 32.613281 85.96875 32.246094 84.808594 L 31.777344 83.328125 C 31.421875 82.203125 32.042969 81.5 32.667969 81.179688 C 31.957031 81.320312 30.910156 81.101562 30.570312 80.039062 L 30.101562 78.5625 C 29.679688 77.242188 30.609375 76.5 31.308594 76.277344 "/>
<path style=" stroke:none;fill-rule:nonzero;fill:rgb(97.648621%,67.83905%,47.44873%);fill-opacity:1;" d="M 35.949219 90.957031 C 35.25 91.179688 34.316406 91.921875 34.734375 93.242188 L 35.207031 94.71875 C 35.574219 95.882812 36.789062 96.039062 37.488281 95.816406 L 43.136719 94.019531 C 43.835938 93.796875 44.015625 92.402344 43.632812 91.191406 C 43.289062 90.109375 42.292969 88.941406 41.59375 89.164062 L 35.949219 90.957031 "/>
<path style=" stroke:none;fill-rule:nonzero;fill:rgb(98.429871%,80.389404%,59.609985%);fill-opacity:1;" d="M 36.058594 91.359375 C 35.535156 91.527344 34.921875 92.367188 35.316406 93.613281 C 35.699219 94.820312 36.695312 95.195312 37.222656 95.027344 L 38.191406 94.71875 C 38.71875 94.550781 38.855469 93.5 38.566406 92.582031 C 38.304688 91.765625 37.554688 90.882812 37.027344 91.050781 L 36.058594 91.359375 "/>
<path style=" stroke:none;fill-rule:nonzero;fill:rgb(97.648621%,67.83905%,47.44873%);fill-opacity:1;" d="M 34.769531 85.996094 C 34.070312 86.21875 33.140625 86.960938 33.558594 88.277344 L 34.027344 89.757812 C 34.394531 90.917969 35.613281 91.074219 36.3125 90.851562 L 43.464844 88.566406 C 44.164062 88.34375 44.347656 86.949219 43.960938 85.734375 C 43.617188 84.652344 42.625 83.484375 41.925781 83.707031 L 34.769531 85.996094 "/>
<path style=" stroke:none;fill-rule:nonzero;fill:rgb(98.429871%,80.389404%,59.609985%);fill-opacity:1;" d="M 35.011719 86.34375 C 34.484375 86.511719 33.871094 87.355469 34.269531 88.601562 C 34.648438 89.808594 35.648438 90.179688 36.175781 90.011719 L 37.144531 89.707031 C 37.671875 89.539062 37.808594 88.484375 37.515625 87.570312 C 37.257812 86.75 36.507812 85.871094 35.980469 86.039062 L 35.011719 86.34375 "/>
<path style=" stroke:none;fill-rule:nonzero;fill:rgb(97.648621%,67.83905%,47.44873%);fill-opacity:1;" d="M 33.34375 81.09375 C 32.644531 81.316406 31.710938 82.054688 32.132812 83.375 L 32.601562 84.855469 C 32.96875 86.015625 34.1875 86.171875 34.882812 85.949219 L 42.488281 83.535156 C 43.1875 83.3125 43.371094 81.917969 42.984375 80.703125 C 42.640625 79.621094 41.648438 78.457031 40.945312 78.675781 L 33.34375 81.09375 "/>
<path style=" stroke:none;fill-rule:nonzero;fill:rgb(98.429871%,80.389404%,59.609985%);fill-opacity:1;" d="M 33.566406 81.425781 C 33.039062 81.59375 32.429688 82.4375 32.824219 83.683594 C 33.207031 84.886719 34.203125 85.261719 34.730469 85.09375 L 35.699219 84.785156 C 36.226562 84.621094 36.363281 83.566406 36.070312 82.648438 C 35.8125 81.832031 35.0625 80.953125 34.535156 81.117188 L 33.566406 81.425781 "/>
<path style=" stroke:none;fill-rule:nonzero;fill:rgb(97.648621%,67.83905%,47.44873%);fill-opacity:1;" d="M 31.664062 76.324219 C 30.964844 76.546875 30.035156 77.289062 30.457031 78.609375 L 30.925781 80.085938 C 31.296875 81.246094 32.511719 81.402344 33.210938 81.179688 L 40.363281 78.882812 C 41.0625 78.660156 41.242188 77.265625 40.855469 76.050781 C 40.511719 74.96875 39.515625 73.804688 38.816406 74.027344 L 31.664062 76.324219 "/>
<path style=" stroke:none;fill-rule:nonzero;fill:rgb(98.429871%,80.389404%,59.609985%);fill-opacity:1;" d="M 31.886719 76.65625 C 31.359375 76.824219 30.75 77.667969 31.148438 78.914062 C 31.53125 80.117188 32.527344 80.492188 33.054688 80.324219 L 34.023438 80.015625 C 34.550781 79.847656 34.6875 78.792969 34.394531 77.875 C 34.132812 77.058594 33.382812 76.179688 32.855469 76.347656 L 31.886719 76.65625 "/>
<path style=" stroke:none;fill-rule:nonzero;fill:rgb(89.019775%,61.959839%,43.139648%);fill-opacity:1;" d="M 37.40625 95.644531 L 43.050781 93.851562 C 43.417969 93.734375 43.644531 93.292969 43.71875 92.722656 C 43.769531 92.492188 43.796875 92.234375 43.792969 91.957031 C 43.917969 92.941406 43.6875 93.863281 43.132812 94.042969 L 37.484375 95.835938 C 36.796875 96.054688 35.613281 95.90625 35.222656 94.800781 C 35.675781 95.730469 36.757812 95.847656 37.40625 95.644531 "/>
<path style=" stroke:none;fill-rule:nonzero;fill:rgb(89.019775%,61.959839%,43.139648%);fill-opacity:1;" d="M 36.226562 90.683594 L 43.382812 88.394531 C 43.75 88.277344 43.972656 87.835938 44.046875 87.265625 C 44.101562 87.035156 44.125 86.777344 44.121094 86.5 C 44.25 87.484375 44.019531 88.40625 43.464844 88.585938 L 36.304688 90.875 C 35.621094 91.09375 34.433594 90.945312 34.042969 89.835938 C 34.496094 90.769531 35.582031 90.886719 36.226562 90.683594 "/>
<path style=" stroke:none;fill-rule:nonzero;fill:rgb(89.019775%,61.959839%,43.139648%);fill-opacity:1;" d="M 34.800781 85.777344 L 42.402344 83.363281 C 42.773438 83.246094 42.996094 82.804688 43.070312 82.238281 C 43.125 82.007812 43.148438 81.746094 43.144531 81.472656 C 43.269531 82.457031 43.042969 83.378906 42.484375 83.554688 L 34.878906 85.972656 C 34.195312 86.1875 33.007812 86.042969 32.617188 84.933594 C 33.070312 85.867188 34.15625 85.984375 34.800781 85.777344 "/>
<path style=" stroke:none;fill-rule:nonzero;fill:rgb(89.019775%,61.959839%,43.139648%);fill-opacity:1;" d="M 33.125 81.007812 L 40.28125 78.710938 C 40.644531 78.59375 40.871094 78.152344 40.941406 77.585938 C 40.996094 77.355469 41.023438 77.097656 41.019531 76.820312 C 41.144531 77.804688 40.917969 78.722656 40.359375 78.902344 L 33.207031 81.199219 C 32.519531 81.417969 31.332031 81.269531 30.941406 80.164062 C 31.394531 81.097656 32.480469 81.210938 33.125 81.007812 "/>
<path style=" stroke:none;fill-rule:nonzero;fill:rgb(97.648621%,67.83905%,47.44873%);fill-opacity:1;" d="M 13.027344 93.417969 L 19.175781 84.609375 L 20.703125 77.363281 C 20.703125 77.363281 28.382812 74.789062 31.476562 74.5625 C 32.921875 74.453125 32.152344 79.222656 28.859375 79.464844 L 25.898438 79.867188 C 25.898438 79.867188 29.21875 85.628906 24.359375 91.988281 "/>
<path style=" stroke:none;fill-rule:nonzero;fill:rgb(98.429871%,80.389404%,59.609985%);fill-opacity:1;" d="M 28.097656 75.191406 C 29.277344 74.917969 30.414062 74.644531 31.242188 74.582031 C 31.308594 74.742188 31.339844 74.90625 31.359375 75.105469 C 31.464844 76.222656 30.292969 76.90625 29.265625 76.980469 C 28.800781 77.011719 28.210938 76.285156 28.136719 75.554688 C 28.125 75.414062 28.085938 75.328125 28.097656 75.191406 "/>
<path style=" stroke:none;fill-rule:nonzero;fill:rgb(98.429871%,80.389404%,59.609985%);fill-opacity:1;" d="M 32.097656 76.839844 C 31.574219 77.007812 30.960938 77.851562 31.359375 79.09375 C 31.742188 80.300781 32.738281 80.675781 33.265625 80.507812 L 34.234375 80.195312 C 34.761719 80.027344 34.898438 78.976562 34.605469 78.058594 C 34.34375 77.242188 33.59375 76.363281 33.066406 76.53125 L 32.097656 76.839844 "/>
</g>
</svg>
