<?xml version="1.0" encoding="UTF-8"?>
<svg xmlns="http://www.w3.org/2000/svg" xmlns:xlink="http://www.w3.org/1999/xlink" width="104.88pt" height="104.999996pt" viewBox="0 0 104.88 104.999996" version="1.2">
<defs>
<clipPath id="clip1">
  <path d="M 64 0.0585938 L 104.761719 0.0585938 L 104.761719 92 L 64 92 Z M 64 0.0585938 "/>
</clipPath>
<clipPath id="clip2">
  <path d="M 14 65 L 104.761719 65 L 104.761719 104.9375 L 14 104.9375 Z M 14 65 "/>
</clipPath>
<clipPath id="clip3">
  <path d="M 1 12 L 42 12 L 42 104.9375 L 1 104.9375 Z M 1 12 "/>
</clipPath>
</defs>
<g id="surface1">
<g clip-path="url(#clip1)" clip-rule="nonzero">
<path style=" stroke:none;fill-rule:nonzero;fill:rgb(77.249146%,50.19989%,48.239136%);fill-opacity:1;" d="M 104.242188 44.59375 L 103.964844 9.070312 C 103.964844 7.089844 102.355469 5.480469 100.367188 5.480469 C 99.113281 5.480469 98.011719 6.121094 97.371094 7.085938 L 97.371094 5.066406 C 97.371094 2.875 95.589844 1.105469 93.398438 1.105469 C 91.769531 1.105469 90.375 2.078125 89.757812 3.472656 C 89.488281 1.542969 87.828125 0.0585938 85.820312 0.0585938 C 83.628906 0.0585938 81.847656 1.832031 81.847656 4.019531 L 81.847656 7.363281 C 81.253906 5.925781 79.832031 4.914062 78.175781 4.914062 C 75.980469 4.914062 74.203125 6.6875 74.203125 8.878906 L 74.203125 28.539062 C 74.203125 28.539062 72.289062 25.699219 71.691406 24.730469 C 70.152344 22.25 67.980469 21.25 65.804688 22.898438 C 63.628906 24.550781 64.753906 27.417969 65.492188 28.804688 L 70.226562 37.617188 C 70.226562 37.617188 73.140625 42.644531 73.527344 44.59375 C 74.703125 50.566406 76.621094 54.652344 79.476562 57.054688 L 79.476562 91.269531 L 99.289062 91.269531 L 99.21875 56.488281 C 102.261719 53.695312 104.242188 49.050781 104.242188 44.59375 "/>
</g>
<path style="fill:none;stroke-width:16.879999;stroke-linecap:round;stroke-linejoin:round;stroke:rgb(70.199585%,41.178894%,39.219666%);stroke-opacity:1;stroke-miterlimit:10;" d="M 2816.4925 3206.333966 L 2816.4925 2715.205013 " transform="matrix(0.0419196,0,0,-0.0417803,-36.218513,141.324982)"/>
<path style="fill:none;stroke-width:16.879999;stroke-linecap:round;stroke-linejoin:round;stroke:rgb(70.199585%,41.178894%,39.219666%);stroke-opacity:1;stroke-miterlimit:10;" d="M 3185.036757 3215.215986 L 3185.036757 2719.973255 " transform="matrix(0.0419196,0,0,-0.0417803,-36.218513,141.324982)"/>
<path style="fill:none;stroke-width:16.879999;stroke-linecap:round;stroke-linejoin:round;stroke:rgb(70.199585%,41.178894%,39.219666%);stroke-opacity:1;stroke-miterlimit:10;" d="M 3007.334128 3299.454933 L 3007.334128 2773.732849 " transform="matrix(0.0419196,0,0,-0.0417803,-36.218513,141.324982)"/>
<g clip-path="url(#clip2)" clip-rule="nonzero">
<path style=" stroke:none;fill-rule:nonzero;fill:rgb(57.649231%,34.118652%,32.548523%);fill-opacity:1;" d="M 61.117188 104.941406 L 96.761719 104.671875 C 98.75 104.671875 100.363281 103.0625 100.363281 101.082031 C 100.363281 99.832031 99.722656 98.738281 98.753906 98.09375 L 100.777344 98.09375 C 102.976562 98.09375 104.753906 96.320312 104.753906 94.132812 C 104.753906 92.511719 103.777344 91.121094 102.378906 90.507812 C 104.3125 90.238281 105.804688 88.585938 105.804688 86.585938 C 105.804688 84.398438 104.023438 82.625 101.832031 82.625 L 98.472656 82.625 C 99.914062 82.03125 100.929688 80.613281 100.929688 78.964844 C 100.929688 76.773438 99.152344 75.003906 96.957031 75.003906 L 77.222656 75.003906 C 77.222656 75.003906 80.078125 73.101562 81.050781 72.5 C 83.539062 70.96875 84.539062 68.800781 82.886719 66.632812 C 81.230469 64.464844 78.347656 65.585938 76.960938 66.320312 L 68.113281 71.042969 C 68.113281 71.042969 63.078125 73.945312 61.117188 74.332031 C 55.128906 75.503906 51.027344 77.414062 48.617188 80.257812 L 14.289062 80.257812 L 14.289062 100.007812 L 49.183594 99.9375 C 51.988281 102.96875 56.648438 104.941406 61.117188 104.941406 "/>
</g>
<path style="fill:none;stroke-width:16.879999;stroke-linecap:round;stroke-linejoin:round;stroke:rgb(51.368713%,22.749329%,21.958923%);stroke-opacity:1;stroke-miterlimit:10;" d="M 3213.085258 1404.966834 L 2722.00353 1404.966834 " transform="matrix(0.0419196,0,0,-0.0417803,-36.218513,141.324982)"/>
<path style="fill:none;stroke-width:16.879999;stroke-linecap:round;stroke-linejoin:round;stroke:rgb(51.368713%,22.749329%,21.958923%);stroke-opacity:1;stroke-miterlimit:10;" d="M 3222.03096 1036.503251 L 2726.755934 1036.503251 " transform="matrix(0.0419196,0,0,-0.0417803,-36.218513,141.324982)"/>
<path style="fill:none;stroke-width:16.879999;stroke-linecap:round;stroke-linejoin:round;stroke:rgb(51.368713%,22.749329%,21.958923%);stroke-opacity:1;stroke-miterlimit:10;" d="M 3306.269647 1214.237144 L 2780.523326 1214.237144 " transform="matrix(0.0419196,0,0,-0.0417803,-36.218513,141.324982)"/>
<g clip-path="url(#clip3)" clip-rule="nonzero">
<path style=" stroke:none;fill-rule:nonzero;fill:rgb(96.078491%,48.629761%,40.388489%);fill-opacity:1;" d="M 1.457031 59.652344 L 1.734375 95.179688 C 1.734375 97.164062 3.34375 98.765625 5.332031 98.765625 C 6.585938 98.765625 7.683594 98.128906 8.328125 97.164062 L 8.328125 99.183594 C 8.328125 101.371094 10.109375 103.144531 12.304688 103.144531 C 13.929688 103.144531 15.324219 102.171875 15.941406 100.777344 C 16.210938 102.707031 17.871094 104.191406 19.878906 104.191406 C 22.070312 104.191406 23.847656 102.417969 23.847656 100.230469 L 23.847656 96.882812 C 24.441406 98.320312 25.867188 99.335938 27.523438 99.335938 C 29.722656 99.335938 31.5 97.558594 31.5 95.371094 L 31.5 75.707031 C 31.5 75.707031 33.410156 78.550781 34.007812 79.519531 C 35.546875 81.996094 37.71875 83 39.894531 81.347656 C 42.070312 79.703125 40.945312 76.828125 40.210938 75.445312 L 35.472656 66.628906 C 35.472656 66.628906 32.558594 61.605469 32.167969 59.652344 C 30.996094 53.683594 29.078125 49.601562 26.226562 47.195312 L 26.226562 12.984375 L 6.410156 12.984375 L 6.480469 47.757812 C 3.4375 50.558594 1.457031 55.199219 1.457031 59.652344 "/>
</g>
<path style="fill:none;stroke-width:16.879999;stroke-linecap:round;stroke-linejoin:round;stroke:rgb(95.289612%,42.349243%,37.249756%);stroke-opacity:1;stroke-miterlimit:10;" d="M 1432.890698 1063.71028 L 1432.890698 1554.745738 " transform="matrix(0.0419196,0,0,-0.0417803,-36.218513,141.324982)"/>
<path style="fill:none;stroke-width:16.879999;stroke-linecap:round;stroke-linejoin:round;stroke:rgb(95.289612%,42.349243%,37.249756%);stroke-opacity:1;stroke-miterlimit:10;" d="M 1064.53281 1054.734765 L 1064.53281 1549.884001 " transform="matrix(0.0419196,0,0,-0.0417803,-36.218513,141.324982)"/>
<path style="fill:none;stroke-width:16.879999;stroke-linecap:round;stroke-linejoin:round;stroke:rgb(95.289612%,42.349243%,37.249756%);stroke-opacity:1;stroke-miterlimit:10;" d="M 1242.235439 970.495818 L 1242.235439 1496.311397 " transform="matrix(0.0419196,0,0,-0.0417803,-36.218513,141.324982)"/>
<path style=" stroke:none;fill-rule:nonzero;fill:rgb(89.7995%,58.428955%,53.729248%);fill-opacity:1;" d="M 74.417969 9.167969 L 56.621094 9.207031 C 53.816406 6.175781 49.15625 4.203125 44.6875 4.203125 L 9.042969 4.476562 C 7.054688 4.476562 5.441406 6.082031 5.441406 8.0625 C 5.441406 9.3125 6.082031 10.410156 7.050781 11.050781 L 5.023438 11.050781 C 2.828125 11.050781 1.050781 12.824219 1.050781 15.011719 C 1.050781 16.632812 2.027344 18.023438 3.425781 18.636719 C 1.492188 18.90625 0 20.558594 0 22.558594 C 0 24.746094 1.78125 26.519531 3.976562 26.519531 L 7.332031 26.519531 C 5.890625 27.113281 4.875 28.53125 4.875 30.179688 C 4.875 32.367188 6.652344 34.140625 8.847656 34.140625 L 28.578125 34.140625 C 28.578125 34.140625 25.726562 36.046875 24.753906 36.644531 C 22.269531 38.175781 21.261719 40.34375 22.917969 42.511719 C 24.574219 44.679688 27.453125 43.558594 28.84375 42.824219 L 37.6875 38.101562 C 37.6875 38.101562 42.730469 35.199219 44.6875 34.8125 C 50.675781 33.640625 54.777344 31.730469 57.1875 28.886719 L 74.265625 28.886719 L 74.417969 9.167969 "/>
<path style="fill:none;stroke-width:16.879999;stroke-linecap:round;stroke-linejoin:round;stroke:rgb(85.488892%,48.239136%,47.44873%);stroke-opacity:1;stroke-miterlimit:10;" d="M 1036.391125 2747.834749 L 1527.379668 2747.834749 " transform="matrix(0.0419196,0,0,-0.0417803,-36.218513,141.324982)"/>
<path style="fill:none;stroke-width:16.879999;stroke-linecap:round;stroke-linejoin:round;stroke:rgb(85.488892%,48.239136%,47.44873%);stroke-opacity:1;stroke-miterlimit:10;" d="M 1027.538608 3116.298333 L 1522.720449 3116.298333 " transform="matrix(0.0419196,0,0,-0.0417803,-36.218513,141.324982)"/>
<path style="fill:none;stroke-width:16.879999;stroke-linecap:round;stroke-linejoin:round;stroke:rgb(85.488892%,48.239136%,47.44873%);stroke-opacity:1;stroke-miterlimit:10;" d="M 943.206736 2938.56444 L 1469.046241 2938.56444 " transform="matrix(0.0419196,0,0,-0.0417803,-36.218513,141.324982)"/>
</g>
</svg>
